<svg xmlns="http://www.w3.org/2000/svg" viewBox="0 0 1080 1080" fill="none">
  <rect width="1080" height="1080" fill="none"/>
  <path class="character-k" d="M617.084 83.5355C619.036 81.5829 622.202 81.5829 624.155 83.5355L731.989 191.369C733.941 193.322 733.941 196.488 731.989 198.44L275.905 654.524L164.536 543.155C162.583 541.202 162.583 538.036 164.536 536.084L617.084 83.5355Z" />
  <path class="character-k" d="M164.536 543.155C162.583 541.202 162.583 538.036 164.536 536.084L275.905 424.715L731.989 880.798C733.941 882.751 733.941 885.917 731.989 887.869L624.155 995.703C622.202 997.656 619.036 997.656 617.084 995.703L164.536 543.155Z" />
  <path d="M617.084 83.5355C619.036 81.5829 622.202 81.5829 624.155 83.5355L731.989 191.369C733.941 193.322 733.941 196.488 731.989 198.44L505.715 424.715L390.81 309.81L617.084 83.5355Z" fill="#90CAF9"/>
  <path d="M731.989 880.798C733.941 882.751 733.941 885.917 731.989 887.869L624.155 995.703C622.202 997.656 619.036 997.656 617.084 995.703L390.81 769.429L505.715 654.524L731.989 880.798Z" fill="#90CAF9"/>
  <path d="M846.894 536.084C848.846 538.036 848.846 541.202 846.894 543.155L735.524 654.524L505.715 424.715L620.619 309.81L846.894 536.084Z" fill="#90CAF9"/>
  <path d="M735.524 424.715L846.894 536.084C848.846 538.036 848.846 541.202 846.894 543.155L620.619 769.429L505.715 654.524L735.524 424.715Z" fill="#90CAF9"/>
  <style>
    .character-k {
      fill: #fff;
    }

    @media (prefers-color-scheme: light) {
      .character-k {
        fill: #232f34;
      }
    }
  </style>
</svg>